# xmcd CD database file generated by OrangeCD 6.3
#
# Track frame offsets:
#	150
#	13262
#	24875
#	40660
#	54812
#	69912
#	82675
#	97960
#	115962
#	131625
#	149300
#	164912
#	178062
#	195575
#
# Disc length: 2832 seconds
#
# Revision: 0
# Processed by: cddbd v1.5.2PL0 Copyright (c) Steve Scherf et al.
# Submitted via: OrangeCD 6.3
#
DISCID=b00b0e0e
DTITLE=Various Artist - Spotlight On Country Hits Vol. VIII
DYEAR=1993
DGENRE=
TTITLE0=Alan Jackson - Love's Got A Hold On You
TTITLE1=Chris LeDoux and Garth Brooks - Whatcha Gonna Do With A Cowboy
TTITLE2=Joe Diffie - Next Thing Smokin'
TTITLE3=Pam Tillis - Shake The Sugar Tree
TTITLE4=Billy Dean - If There Hadn't Been You
TTITLE5=Mike Reid - Keep On Walkin'
TTITLE6=Mary Chapin Carpenter - Not Too Much To Ask
TTITLE7=John Anderson - Seminole Wind
TTITLE8=Matthews, Wright And King - Mothers Eyes
TTITLE9=Steve Wariner - Crash Course In The Blues
TTITLE10=Lorrie Morgan - Watch Me
TTITLE11=The Geezinslaws - Help, I'm White And I Can't Get Down
TTITLE12=Martina McBride - That's Me
TTITLE13=Billy Ray Cyrus - Could've Been Me
EXTD=
EXTT0=
EXTT1=
EXTT2=
EXTT3=
EXTT4=
EXTT5=
EXTT6=
EXTT7=
EXTT8=
EXTT9=
EXTT10=
EXTT11=
EXTT12=
EXTT13=
PLAYORDER=
